<svg width="190" height="59" xmlns="http://www.w3.org/2000/svg" xmlns:xlink="http://www.w3.org/1999/xlink">
    <defs>
        <path id="a" d="M.228.217H34v31.328H.228z"/>
    </defs>
    <g fill="none" fill-rule="evenodd">
        <path d="M0 31.864v-1.39c2.356-.131 4.135-.36 4.346-1.163.21-.848.21-1.523.21-2.73V5.819c0-1.206 0-1.88-.21-2.726-.21-.81-1.99-1.031-4.346-1.166V.536h16.65c7.327 0 12.04 1.84 12.04 6.806 0 3.983-3.405 6.576-8.165 7.425v.092c6.173.267 10.625 3.354 10.625 8.055 0 6.086-5.599 8.95-13.614 8.95H0zm11.938-17.23h3.612c2.773 0 5.813-1.612 5.813-6.578 0-4.295-2.15-6.043-6.546-6.043h-2.879v12.622zm0 10.605c0 4.296.94 5.143 4.658 5.143 3.978 0 6.281-2.545 6.281-6.975 0-5.37-3.713-7.296-7.902-7.296h-3.037v9.128zM40.587 21.884l-2.093 5.325c-.734 1.878 0 3.264 2.407 3.264v1.387H30.69v-1.387c1.52 0 3.402-.756 4.552-2.724C37.129 24.389 43.52 9.845 47.913 0h3.403c3.145 7.38 9.48 22.108 11.418 26.404 1.046 2.37 2.62 4.067 4.869 4.067v1.388h-14.61v-1.387c2.882 0 3.356-1.386 2.515-3.354l-2.145-5.235H40.587zm11.887-2.015L47.288 6.803h-.101l-5.658 13.066h10.945zM88.508 7.472c-.947-2.818-2.882-5.86-7.017-5.86-2.358 0-5.079 1.254-5.079 4.565 0 3.132 3.51 4.697 9.214 8.414 5.343 3.446 7.016 5.95 7.016 9.348 0 5.507-6.388 8.462-13.876 8.462-4.347 0-7.225-.538-9.949-1.436-.204-.087-.365-.265-.365-.622V23.54h1.413c.892 4.072 3.877 7.252 8.326 7.252 3.401 0 6.441-2.373 6.441-5.64 0-2.956-1.522-4.97-8.85-9.042-3.926-2.146-7.17-4.61-7.17-8.546C68.612 3.132 73.585 0 80.808 0c3.404 0 5.968.09 8.588.717.368.135.523.401.523.627v6.128h-1.41zM112.416 26.582c0 1.206 0 1.88.205 2.73.213.804 1.994 1.03 4.346 1.16v1.39h-16.494v-1.39c2.357-.13 4.141-.356 4.344-1.16.212-.85.212-1.524.212-2.73V2.197h-4.393c-4.45 0-5.605 2.37-7.543 5.184h-1.41l1.41-6.846h31.311l3.292 6.846h-1.412c-2.53-4.343-4.917-5.184-9.419-5.184h-4.449v24.385z" fill="#FFF"/>
        <path d="M145.436 31.864h-16.49v-1.39c2.303-.131 4.135-.36 4.34-1.163.21-.848.21-1.523.21-2.73V19.78l-8.17-14.051c-1.62-2.861-3.397-3.802-5.806-3.802V.536h15.6v1.39c-3.977 0-3.613 1.43-2.306 3.802l6.548 11.412 7.224-11.275c1.78-2.773-.107-3.94-3.195-3.94V.583h11.256v1.344c-1.462 0-2.827.4-4.134 2.506l-8.638 13.337a7.533 7.533 0 0 0-.995 3.71v5.103c0 1.206 0 1.88.21 2.729.21.804 2.039 1.032 4.346 1.163v1.39z" fill="#FFF"/>
        <g transform="translate(156 .318)">
            <mask id="b" fill="#fff">
                <use xlink:href="#a"/>
            </mask>
            <path d="M.228.217h18.43c5.97 0 11.204 2.464 11.204 7.925 0 4.07-3.193 7.428-7.749 8.726l5.34 7.025c2.41 3.132 5.075 6.04 6.547 6.845v.807h-7.538c-3.092 0-6.284-7.607-10.423-13.782h-3.875v8.5c0 1.209 0 1.882.212 2.732.207.803 2.042 1.03 4.345 1.16v1.39H.228v-1.39c2.3-.13 4.136-.357 4.35-1.16.202-.85.202-1.523.202-2.731V5.499c0-1.204 0-1.878-.202-2.725-.214-.808-2.05-1.032-4.35-1.167V.217zm11.936 15.798h3.665c4.612 0 6.181-3.356 6.181-7.56 0-4.834-2.569-6.49-6.18-6.49h-3.666v14.05z" fill="#FFF" mask="url(#b)"/>
        </g>
        <path d="M76.88 41.457c.412-1.115 0-2.021-1.491-2.021v-.858h6.325v.858c-.943 0-2.108.47-2.823 1.69-1.168 2.078-5.125 11.087-7.846 17.183h-2.108c-1.947-4.571-5.868-13.691-7.07-16.352-.648-1.469-1.622-2.521-3.014-2.521v-.858h9.046v.858c-1.783 0-1.973.948-1.556 2.078l5.09 12.583h.064l5.384-12.64zM135.384 42.879c-.586-1.745-1.786-3.63-4.346-3.63-1.459 0-3.145.778-3.145 2.828 0 1.939 2.173 2.909 5.705 5.21 3.309 2.136 4.346 3.686 4.346 5.79 0 3.412-3.956 5.24-8.594 5.24-2.693 0-4.474-.331-6.162-.89-.127-.052-.225-.162-.225-.382V52.83h.875c.55 2.52 2.402 4.49 5.155 4.49 2.108 0 3.991-1.47 3.991-3.493 0-1.83-.943-3.077-5.482-5.6-2.432-1.328-4.441-2.854-4.441-5.292 0-2.745 3.081-4.685 7.553-4.685 2.108 0 3.697.056 5.321.444.225.085.323.249.323.389v3.795h-.874zM163.588 54.714c0 .747 0 1.164.127 1.691.133.498 1.235.638 2.692.72v.86h-10.215v-.86c1.46-.082 2.565-.222 2.69-.72.132-.527.132-.944.132-1.69V39.61h-2.721c-2.757 0-3.472 1.47-4.67 3.212h-.875l.875-4.24h19.39l2.038 4.24h-.874c-1.567-2.69-3.046-3.212-5.834-3.212h-2.755v15.103z" fill="#FFF"/>
        <path d="M184.037 57.986h-10.212v-.861c1.426-.082 2.56-.222 2.688-.721.131-.526.131-.943.131-1.69V50.5l-5.06-8.703c-1.004-1.771-2.105-2.355-3.597-2.355v-.861h9.662v.86c-2.464 0-2.239.888-1.428 2.356l4.056 7.069 4.474-6.985c1.103-1.716-.067-2.44-1.98-2.44v-.83h6.972v.83c-.906 0-1.752.25-2.56 1.554l-5.35 8.259a4.667 4.667 0 0 0-.617 2.3v3.159c0 .747 0 1.164.13 1.69.131.499 1.264.639 2.691.72v.862zM100.602 38.582h11.413c3.697 0 6.94 1.526 6.94 4.908 0 2.522-1.978 4.6-4.801 5.405l3.309 4.35c1.492 1.94 3.143 3.742 4.054 4.24v.499h-4.67c-1.913 0-3.89-4.71-6.453-8.535h-2.4v5.265c0 .748 0 1.165.132 1.692.128.497 1.264.637 2.689.718v.86h-10.213v-.86c1.424-.081 2.562-.221 2.693-.718.126-.527.126-.944.126-1.692v-12.86c0-.747 0-1.163-.126-1.688-.131-.501-1.27-.64-2.693-.723v-.861zm7.392 9.784h2.27c2.856 0 3.827-2.078 3.827-4.681 0-2.994-1.591-4.02-3.827-4.02h-2.27v8.7zM147.213 40.167c.127-.5 1.23-.64 2.69-.72v-.86H139.69v.86c1.457.08 2.56.22 2.692.72.127.526.127.942.127 1.691l.003 12.855c0 .748 0 1.165-.132 1.691-.126.498-1.23.64-2.69.72v.862h10.215v-.862c-1.456-.08-2.56-.222-2.691-.72-.126-.526-.126-.943-.126-1.69l-.004-12.856c0-.749 0-1.165.13-1.69M56.535 40.167c.126-.5 1.23-.64 2.69-.72v-.86H49.013v.86c1.455.08 2.558.22 2.689.72.128.526.128.942.128 1.691l.004 12.855c0 .748 0 1.165-.132 1.691-.126.498-1.23.64-2.69.72v.862h10.215v-.862c-1.457-.08-2.56-.222-2.691-.72-.127-.526-.127-.943-.127-1.69l-.004-12.856c0-.749 0-1.165.13-1.69M15.739 38.586v.861c1.456.08 2.56.222 2.691.72.128.526.128.942.128 1.691 0 0-.029 5.846-.029 7.27 0 4.017-1.552 7.421-5.71 7.421-3.687 0-5.425-2.594-5.425-6.408l.008-8.283c0-.749 0-1.165.13-1.69.128-.499 1.232-.64 2.691-.72v-.862H.008v.861c1.458.08 2.56.222 2.69.72.13.526.13.942.13 1.691l-.002 8.392c0 4.91 3.235 8.057 9.201 8.057 5.98 0 8.054-4.158 8.054-8.75l-.006-7.699c0-.749 0-1.165.131-1.69.128-.499 1.232-.64 2.692-.72v-.862h-7.16zM40.047 38.586v.861c1.456.08 2.56.222 2.692.72.126.526.126.942.126 1.691l-.001 9.196-11.812-12.476-6.756.008h-.017v.908c.908.072 1.622.193 1.949.474.218.174.52.502.86.886.023.284.025.592.025 1.004l.003 12.856c0 .747 0 1.164-.131 1.69-.126.5-1.23.64-2.69.72v.862h7.147v-.862c-1.456-.08-2.558-.22-2.69-.72-.13-.526-.13-.943-.13-1.69v-8.71h-.01v-3.562l14.674 15.87 1.092.002-.005-16.456c0-.749 0-1.165.13-1.69.127-.499 1.23-.64 2.692-.72v-.862h-7.148zM97.678 53.743h-.875c-1.2 1.744-1.882 3.212-4.67 3.212h-4.275v-8.7h1.513c.748 0 1.165 0 1.692.131.498.126 1.296 1.231 1.377 2.692h.86v-6.593h-.86c-.081 1.456-.88 2.56-1.377 2.691-.527.127-.944.127-1.692.127l-1.513.002v-7.694h3.602c2.789 0 3.47 1.47 4.67 3.212h.874l-.873-4.24H85.86v.004h-5.393v.86c1.458.081 2.56.22 2.692.72.127.526.127.942.127 1.691l.003 12.855c0 .75 0 1.165-.13 1.692-.128.498-1.231.638-2.692.72v.861h7.39v-.003h8.945l.875-4.24z" fill="#FFF"/>
    </g>
</svg>
