<svg id="Layer_1" data-name="Layer 1" xmlns="http://www.w3.org/2000/svg" viewBox="0 0 201.47 238.08"><defs><style>.cls-1{fill:#393938;}</style></defs><title>Bastyr Informal Seal - Charcoal</title><path class="cls-1" d="M159,55.28V61c9.52.55,14.36,3.11,15.25,9.14a110.77,110.77,0,0,1,.9,12.08v51.6c0,9.41-1.55,17.28-4.49,23.66a66,66,0,0,1,1.23,12.63c0,1.52-.05,3-.12,4.5,8.56-9.2,13.57-22.28,13.57-39V82.17a78.74,78.74,0,0,1,.9-12.08c.72-6,5.56-8.59,15.25-9.14V55.28Z"/><path class="cls-1" d="M106,109.86v-.68c24.59-8.59,46-29.84,46-57.48C152,12.93,121.37,0,72.93,0H0V7.24c20.24,2.64,19.21,4.65,19.21,32.49V198.3c0,27.85,1,29.87-19.21,32.5v7.28H82.93c49,0,84.75-20.4,84.75-68C167.68,136.7,141.4,110.88,106,109.86ZM85.27,227.2c-27.69,0-33.69-8.51-33.69-38.43V119H68.42V108.15H51.58V10.88h19c32,0,48.05,12.93,48.05,46.6,0,22-7,35.18-16.56,42.57v24.54c16.52,7.48,27.57,23.08,27.57,50.23C129.65,208.49,115.31,227.2,85.27,227.2Z"/><path class="cls-1" d="M97.9,136.11V76.87c0-5,0-7.69.72-11.16.72-3.29,7-4.21,14.89-4.76V55.28H57V61c7.89.55,14.17,1.47,14.89,4.76.72,3.47.72,6.21.72,11.16v57.95c0,35,19.86,53.2,51.66,55.39a88.49,88.49,0,0,0,1.19-14.44C111.32,172,97.9,160,97.9,136.11Z"/></svg>