<svg width="22" height="22" xmlns="http://www.w3.org/2000/svg">
    <path d="M13.982 15.518c-.295.025-.565-.122-.835-.269-2.48-1.444-4.593-3.5-6.066-5.947-.27-.416-.516-.905-.418-1.394.172-.93 1.35-1.297 1.695-2.178.319-.759-.099-1.616-.59-2.276A10.501 10.501 0 0 0 4.748.688C4.181.346 3.567.052 2.904.003-.067-.144-.239 4.8.155 6.733c.417 2.007 1.424 3.866 2.603 5.555 2.775 4.013 6.582 7.415 11.2 9.03 1.62.563 3.364.905 5.034.514.836-.196 1.621-.563 2.21-1.2.59-.611.91-1.492.762-2.324-.147-.856-.737-1.542-1.326-2.153a17.502 17.502 0 0 0-2.849-2.35c-.197-.122-.393-.244-.614-.269-.246-.024-.467.098-.688.22a8.373 8.373 0 0 0-1.67 1.224c-.22.22-.467.44-.761.49-.025.024-.05.048-.074.048z" fill="#93282C" fill-rule="nonzero"/>
</svg>
