<svg width="268" height="217" xmlns="http://www.w3.org/2000/svg">
    <path d="M210.25 217c16.5 0 30.25-5.487 41.25-16.462s16.5-24.693 16.5-41.155c0-13.47-3.875-24.818-11.625-34.047-7.75-9.229-17.375-13.843-28.875-13.843-2.5 0-5.375.125-8.625.374-3.25.25-5.875.873-7.875 1.87 0-12.47 4.875-25.815 14.625-40.032 9.75-14.217 23.625-28.31 41.625-42.277L245.5 0c-30 22.448-52.75 46.144-68.25 71.086C161.75 96.03 154 121.221 154 146.662c0 21.45 5 38.536 15 51.257C179 210.639 192.75 217 210.25 217zm-154 0c16.5 0 30.25-5.487 41.25-16.462s16.5-24.693 16.5-41.155c0-13.47-3.875-24.818-11.625-34.047-7.75-9.229-17.375-13.843-28.875-13.843-2.5 0-5.375.125-8.625.374-3.25.25-5.875.873-7.875 1.87 0-12.47 4.875-25.815 14.625-40.032 9.75-14.217 23.625-28.31 41.625-42.277L91.5 0c-30 22.448-52.75 46.144-68.25 71.086C7.75 96.03 0 121.221 0 146.662c0 21.45 5 38.536 15 51.257C25 210.639 38.75 217 56.25 217z" fill="#93282C" fill-rule="nonzero" opacity=".044"/>
</svg>
